<?xml version="1.0" standalone="no"?>
<!DOCTYPE svg PUBLIC "-//W3C//DTD SVG 20010904//EN"
 "http://www.w3.org/TR/2001/REC-SVG-20010904/DTD/svg10.dtd">
<svg version="1.0" xmlns="http://www.w3.org/2000/svg"
 width="300.000000pt" height="300.000000pt" viewBox="0 0 300.000000 300.000000"
 preserveAspectRatio="xMidYMid meet">
<metadata>
Created by potrace 1.10, written by Peter Selinger 2001-2011
</metadata>
<g transform="translate(0.000000,300.000000) scale(0.100000,-0.100000)"
fill="#000000" stroke="none">
<path d="M1607 1833 c-19 -32 -109 -188 -202 -348 -92 -159 -178 -307 -191
-327 -30 -47 -30 -48 4 -48 26 0 41 23 237 365 208 361 210 364 243 365 l32 0
-24 -37 c-13 -21 -57 -96 -99 -168 -41 -71 -123 -213 -182 -315 -59 -102 -112
-191 -117 -197 -8 -10 -2 -13 24 -13 27 0 37 5 45 23 14 29 376 658 409 709
13 21 24 40 24 43 0 3 -38 5 -84 5 l-85 0 -34 -57z"/>
<path d="M1105 1764 c-22 -13 -111 -65 -198 -115 l-158 -91 178 -101 c157 -90
178 -105 181 -129 3 -28 -14 -38 -33 -19 -6 5 -66 42 -135 81 -69 40 -140 81
-157 92 l-33 20 0 -30 c0 -28 11 -36 197 -143 108 -63 200 -115 203 -117 3 -1
4 37 3 85 l-2 87 -150 86 c-139 79 -169 100 -140 100 6 0 61 29 121 65 61 36
114 65 120 65 5 0 8 -12 6 -27 -2 -23 -17 -35 -82 -72 l-79 -44 27 -14 c25
-13 31 -12 101 29 l75 43 0 65 c0 36 3 75 6 88 8 28 -1 27 -51 -4z"/>
<path d="M1844 1774 c3 -9 6 -48 6 -87 l0 -72 150 -85 c82 -47 150 -87 150
-90 0 -3 -17 -13 -38 -22 -20 -10 -75 -40 -121 -68 -46 -27 -88 -50 -93 -50
-5 0 -8 12 -6 27 2 23 17 35 82 72 l79 44 -27 14 c-25 13 -31 12 -101 -29
l-74 -43 -3 -85 c-2 -47 -3 -86 -2 -88 1 -2 66 35 145 81 79 46 170 98 202
116 l58 33 -158 90 c-213 122 -203 115 -203 143 0 14 4 25 9 25 7 0 212 -117
319 -182 l32 -20 0 30 c0 28 -11 36 -200 146 -110 64 -203 116 -206 116 -3 0
-3 -7 0 -16z"/>
</g>
</svg>
